<svg width="742" height="923" viewBox="0 0 742 923" fill="none" xmlns="http://www.w3.org/2000/svg">
<path fill-rule="evenodd" clip-rule="evenodd" d="M368.183 276C444.398 276 506.183 214.215 506.183 138C506.183 61.7847 444.398 0 368.183 0C291.968 0 230.183 61.7847 230.183 138C230.183 214.215 291.968 276 368.183 276ZM728.768 312.823C702.029 265.977 642.37 249.664 595.515 276.388L369.394 405.359L146.859 276.925C100.041 249.905 40.1705 265.947 13.1351 312.757C-13.9004 359.566 2.13676 419.418 48.9551 446.439L270.218 574.138V824.925C270.218 879.09 314.127 923 368.292 923C422.458 923 466.367 879.09 466.367 824.925V574.923L692.345 446.034C739.2 419.31 755.507 359.669 728.768 312.823Z" fill="url(#paint0_linear_115_683)"/>
<defs>
<linearGradient id="paint0_linear_115_683" x1="370.814" y1="4.4212e-09" x2="371.183" y2="1928.5" gradientUnits="userSpaceOnUse">
<stop stop-color="#34D399"/>
<stop offset="1" stop-color="white"/>
</linearGradient>
</defs>
</svg>
